# 3ds Max Wavefront OBJ Exporter v0.97b - (c)2007 guruware
# File Created: 05.10.2018 15:02:40

#
# object Cylinder001
#

v  1.0695 0.0000 -0.0000
v  0.5347 0.0000 -0.9262
v  0.5347 0.4016 -0.9262
v  1.0695 0.4016 -0.0000
v  0.1471 0.0000 -0.9262
v  -0.1471 0.0000 -0.9262
v  -0.1471 0.4016 -0.9262
v  0.1471 0.4016 -0.9262
v  -0.5347 0.0000 -0.9262
v  -1.0695 0.0000 -0.0000
v  -1.0695 0.4016 -0.0000
v  -0.5347 0.4016 -0.9262
v  0.4663 0.4510 -0.8076
v  0.9325 0.4510 -0.0000
v  -0.1282 0.4510 -0.8076
v  0.1282 0.4510 -0.8076
v  -0.9325 0.4510 -0.0000
v  -0.4663 0.4510 -0.8076
v  0.4328 0.5855 -0.7496
v  0.8655 0.5855 -0.0000
v  -0.1190 0.5855 -0.7496
v  0.1190 0.5855 -0.7496
v  -0.8655 0.5855 -0.0000
v  -0.4328 0.5855 -0.7496
v  0.4328 1.4861 -0.7496
v  0.8655 1.4861 -0.0000
v  -0.1190 1.4861 -0.7496
v  0.1190 1.4861 -0.7496
v  -0.8655 1.4861 -0.0000
v  -0.4328 1.4861 -0.7496
v  1.0695 2.9721 -0.0000
v  1.0695 2.5705 -0.0000
v  0.5347 2.5705 -0.9262
v  0.5347 2.9721 -0.9262
v  0.1471 2.5705 -0.9262
v  -0.1471 2.5705 -0.9262
v  -0.1471 2.9721 -0.9262
v  0.1471 2.9721 -0.9262
v  -0.5347 2.9721 -0.9262
v  -0.5347 2.5705 -0.9262
v  -1.0695 2.5705 -0.0000
v  -1.0695 2.9721 -0.0000
v  0.9325 2.5211 -0.0000
v  0.4663 2.5211 -0.8076
v  0.1282 2.5211 -0.8076
v  -0.1282 2.5211 -0.8076
v  -0.4663 2.5211 -0.8076
v  -0.9325 2.5211 -0.0000
v  0.8655 2.3866 -0.0000
v  0.4328 2.3866 -0.7496
v  0.1190 2.3866 -0.7496
v  -0.1190 2.3866 -0.7496
v  -0.4328 2.3866 -0.7496
v  -0.8655 2.3866 -0.0000
v  0.8655 2.2677 -0.0000
v  0.8655 1.6050 -0.0000
v  0.4328 1.6050 -0.7496
v  0.4328 2.2677 -0.7496
v  0.1190 1.6050 -0.7496
v  -0.1190 1.6050 -0.7496
v  -0.1190 2.2677 -0.7496
v  0.1190 2.2677 -0.7496
v  -0.4328 2.2677 -0.7496
v  -0.4328 1.6050 -0.7496
v  -0.8655 1.6050 -0.0000
v  -0.8655 2.2677 -0.0000
v  0.4037 2.9721 -0.6993
v  0.8075 2.9721 -0.0000
v  -0.1110 2.9721 -0.6993
v  0.1110 2.9721 -0.6993
v  -0.8075 2.9721 -0.0000
v  -0.4037 2.9721 -0.6993
v  0.3375 2.7734 -0.5845
v  0.6750 2.7734 -0.0000
v  -0.0928 2.7734 -0.5845
v  0.0928 2.7734 -0.5845
v  -0.6750 2.7734 -0.0000
v  -0.3375 2.7734 -0.5845
v  -0.4412 0.0000 -0.9262
v  -0.4412 0.4016 -0.9262
v  0.4412 0.4016 -0.9262
v  0.4412 0.0000 -0.9262
v  -0.3847 0.4510 -0.8076
v  0.3847 0.4510 -0.8076
v  -0.3570 0.5855 -0.7496
v  0.3570 0.5855 -0.7496
v  0.3570 1.4861 -0.7496
v  -0.3570 1.4861 -0.7496
v  -0.4412 2.5705 -0.9262
v  -0.4412 2.9721 -0.9262
v  0.4412 2.9721 -0.9262
v  0.4412 2.5705 -0.9262
v  -0.3847 2.5211 -0.8076
v  0.3847 2.5211 -0.8076
v  -0.3570 2.3866 -0.7496
v  0.3570 2.3866 -0.7496
v  -0.3570 1.6050 -0.7496
v  -0.3570 2.2677 -0.7496
v  0.3570 2.2677 -0.7496
v  0.3570 1.6050 -0.7496
v  -0.3331 2.9721 -0.6993
v  0.3331 2.9721 -0.6993
v  -0.2784 2.7734 -0.5845
v  0.2784 2.7734 -0.5845
v  0.1456 1.6368 -0.6340
v  0.3304 1.6368 -0.6340
v  -0.3304 1.6368 -0.6340
v  -0.1456 1.6368 -0.6340
v  -0.1456 2.2358 -0.6340
v  -0.3304 2.2358 -0.6340
v  0.3304 2.2358 -0.6340
v  0.1456 2.2358 -0.6340
v  0.5347 0.4016 0.9262
v  0.5347 0.0000 0.9262
v  0.1471 0.0000 0.9262
v  0.1471 0.4016 0.9262
v  -0.1471 0.4016 0.9262
v  -0.1471 0.0000 0.9262
v  -0.5347 0.0000 0.9262
v  -0.5347 0.4016 0.9262
v  0.4663 0.4510 0.8076
v  0.1282 0.4510 0.8076
v  -0.1282 0.4510 0.8076
v  -0.4663 0.4510 0.8076
v  0.4328 0.5855 0.7496
v  0.1190 0.5855 0.7496
v  -0.1190 0.5855 0.7496
v  -0.4328 0.5855 0.7496
v  0.4328 1.4861 0.7496
v  -0.1190 1.4861 0.7496
v  0.1190 1.4861 0.7496
v  -0.4328 1.4861 0.7496
v  0.5347 2.9721 0.9262
v  0.5347 2.5705 0.9262
v  0.1471 2.5705 0.9262
v  0.1471 2.9721 0.9262
v  -0.1471 2.9721 0.9262
v  -0.1471 2.5705 0.9262
v  -0.5347 2.9721 0.9262
v  -0.5347 2.5705 0.9262
v  0.4663 2.5211 0.8076
v  0.1282 2.5211 0.8076
v  -0.1282 2.5211 0.8076
v  -0.4663 2.5211 0.8076
v  0.4328 2.3866 0.7496
v  0.1190 2.3866 0.7496
v  -0.1190 2.3866 0.7496
v  -0.4328 2.3866 0.7496
v  0.4328 2.2677 0.7496
v  0.4328 1.6050 0.7496
v  0.1190 1.6050 0.7496
v  0.1190 2.2677 0.7496
v  -0.1190 2.2677 0.7496
v  -0.1190 1.6050 0.7496
v  -0.4328 2.2677 0.7496
v  -0.4328 1.6050 0.7496
v  0.4037 2.9721 0.6993
v  0.1110 2.9721 0.6993
v  -0.1110 2.9721 0.6993
v  -0.4037 2.9721 0.6993
v  0.3375 2.7734 0.5845
v  0.0928 2.7734 0.5845
v  -0.0928 2.7734 0.5845
v  -0.3375 2.7734 0.5845
v  -0.4412 0.0000 0.9262
v  -0.4412 0.4016 0.9262
v  0.4412 0.4016 0.9262
v  0.4412 0.0000 0.9262
v  -0.3847 0.4510 0.8076
v  0.3847 0.4510 0.8076
v  -0.3570 0.5855 0.7496
v  0.3570 0.5855 0.7496
v  0.3570 1.4861 0.7496
v  -0.3570 1.4861 0.7496
v  -0.4412 2.5705 0.9262
v  -0.4412 2.9721 0.9262
v  0.4412 2.9721 0.9262
v  0.4412 2.5705 0.9262
v  -0.3847 2.5211 0.8076
v  0.3847 2.5211 0.8076
v  -0.3570 2.3866 0.7496
v  0.3570 2.3866 0.7496
v  -0.3570 1.6050 0.7496
v  -0.3570 2.2677 0.7496
v  0.3570 2.2677 0.7496
v  0.3570 1.6050 0.7496
v  -0.3331 2.9721 0.6993
v  0.3331 2.9721 0.6993
v  -0.2784 2.7734 0.5845
v  0.2784 2.7734 0.5845
v  0.3304 1.6368 0.6340
v  0.1456 1.6368 0.6340
v  -0.1456 1.6368 0.6340
v  -0.3304 1.6368 0.6340
v  -0.3304 2.2358 0.6340
v  -0.1456 2.2358 0.6340
v  0.1456 2.2358 0.6340
v  0.3304 2.2358 0.6340
v  -0.2784 2.7734 -0.0000
v  -0.3375 2.7734 -0.0000
v  0.3375 2.7734 -0.0000
v  0.2784 2.7734 -0.0000
v  0.0928 2.7734 -0.0000
v  -0.0928 2.7734 -0.0000
# 204 vertices

vn 1.0000 0.0000 -0.0000
vn 0.5000 0.0000 -0.8660
vn 0.4247 0.5278 -0.7356
vn 0.8494 0.5278 0.0000
vn -0.0000 0.0000 -1.0000
vn -0.0000 0.5913 -0.8065
vn -0.5000 0.0000 -0.8660
vn -1.0000 0.0000 -0.0000
vn -0.8494 0.5278 -0.0000
vn -0.4247 0.5278 -0.7356
vn 0.2501 0.8660 -0.4331
vn 0.5001 0.8660 -0.0000
vn -0.0000 0.7783 -0.6279
vn -0.5001 0.8660 -0.0000
vn -0.2501 0.8660 -0.4331
vn 0.4743 0.3161 -0.8216
vn 0.9487 0.3161 -0.0000
vn -0.0000 0.2564 -0.9666
vn -0.9487 0.3160 -0.0000
vn -0.4744 0.3160 -0.8216
vn 0.4999 0.0000 -0.8661
vn 0.7924 0.6100 -0.0000
vn 0.8494 -0.5278 -0.0000
vn 0.4247 -0.5278 -0.7356
vn 0.3962 0.6100 -0.6862
vn -0.0000 -0.5913 -0.8065
vn -0.0000 0.7071 -0.7071
vn -0.3962 0.6100 -0.6862
vn -0.4247 -0.5278 -0.7356
vn -0.8494 -0.5278 -0.0000
vn -0.7924 0.6100 -0.0000
vn 0.5001 -0.8660 -0.0000
vn 0.2501 -0.8660 -0.4331
vn -0.0000 -0.7783 -0.6279
vn -0.2501 -0.8660 -0.4331
vn -0.5001 -0.8660 -0.0000
vn 0.9487 -0.3161 -0.0000
vn 0.4743 -0.3161 -0.8216
vn -0.0000 -0.2564 -0.9666
vn -0.4744 -0.3160 -0.8216
vn -0.9487 -0.3160 -0.0000
vn 0.2377 0.2351 -0.9425
vn -0.2377 0.2351 -0.9425
vn -0.2377 -0.2351 -0.9425
vn 0.2377 -0.2351 -0.9425
vn -0.1430 0.9582 0.2478
vn -0.2861 0.9582 -0.0000
vn 0.0000 0.8964 0.4432
vn 0.2861 0.9582 -0.0000
vn 0.1430 0.9582 0.2478
vn -0.2558 0.8593 0.4430
vn -0.5115 0.8593 -0.0000
vn 0.5115 0.8593 -0.0000
vn 0.2558 0.8593 0.4430
vn 0.0000 0.0000 -1.0000
vn 0.0000 0.5913 -0.8065
vn 0.0000 0.7783 -0.6279
vn -0.0000 -0.0000 -1.0000
vn 0.0000 -0.5913 -0.8065
vn 0.0000 0.7071 -0.7071
vn 0.0000 -0.7783 -0.6279
vn 0.5089 0.5173 -0.6880
vn -0.5089 0.5173 -0.6880
vn -0.5089 -0.5173 -0.6880
vn 0.5089 -0.5173 -0.6880
vn 0.4247 0.5278 0.7356
vn 0.5000 0.0000 0.8660
vn -0.0000 0.0000 1.0000
vn -0.0000 0.5913 0.8065
vn -0.5000 0.0000 0.8660
vn -0.4247 0.5278 0.7356
vn 0.2501 0.8660 0.4331
vn -0.0000 0.7783 0.6279
vn -0.2501 0.8660 0.4331
vn 0.4743 0.3161 0.8216
vn -0.0000 0.2564 0.9666
vn -0.4744 0.3160 0.8216
vn 0.4999 0.0000 0.8661
vn 0.3962 0.6100 0.6862
vn 0.4247 -0.5278 0.7356
vn -0.0000 -0.5913 0.8065
vn -0.0000 0.7071 0.7071
vn -0.3962 0.6100 0.6862
vn -0.4247 -0.5278 0.7356
vn 0.2501 -0.8660 0.4331
vn -0.0000 -0.7783 0.6279
vn -0.2501 -0.8660 0.4331
vn 0.4743 -0.3161 0.8216
vn -0.0000 -0.2564 0.9666
vn -0.4744 -0.3160 0.8216
vn 0.2377 0.2351 0.9425
vn 0.2377 -0.2351 0.9425
vn -0.2377 -0.2351 0.9425
vn -0.2377 0.2351 0.9425
vn -0.1430 0.9582 -0.2478
vn 0.0000 0.8964 -0.4432
vn 0.1430 0.9582 -0.2478
vn -0.2558 0.8593 -0.4430
vn 0.2558 0.8593 -0.4430
vn 0.0000 0.0000 1.0000
vn 0.0000 0.5913 0.8065
vn 0.0000 0.7783 0.6279
vn -0.0000 -0.0000 1.0000
vn 0.0000 -0.5913 0.8065
vn 0.0000 0.7071 0.7071
vn 0.0000 -0.7783 0.6279
vn -0.5089 0.5173 0.6880
vn 0.5089 0.5173 0.6880
vn 0.5089 -0.5173 0.6880
vn -0.5089 -0.5173 0.6880
vn 0.0000 1.0000 -0.0000
# 111 vertex normals

vt 0.2459 0.6762 0.0000
vt 0.0460 0.6110 0.0000
vt 0.0732 0.5680 0.0000
vt 0.2478 0.6252 0.0000
vt 0.0005 0.5201 0.0000
vt 0.0031 0.4509 0.0000
vt 0.0544 0.4625 0.0000
vt 0.0525 0.5124 0.0000
vt 0.0551 0.3637 0.0000
vt 0.2592 0.3130 0.0000
vt 0.2573 0.3640 0.0000
vt 0.0791 0.4086 0.0000
vt 0.0893 0.5509 0.0000
vt 0.2486 0.6018 0.0000
vt 0.0741 0.4702 0.0000
vt 0.0728 0.5061 0.0000
vt 0.2565 0.3875 0.0000
vt 0.0939 0.4268 0.0000
vt 0.0278 0.0011 0.0000
vt 0.1922 0.0005 0.0000
vt 0.1901 0.0223 0.0000
vt 0.0342 0.0224 0.0000
vt 0.2475 0.0031 0.0000
vt 0.2930 0.0032 0.0000
vt 0.2916 0.0239 0.0000
vt 0.2487 0.0238 0.0000
vt 0.3482 0.0008 0.0000
vt 0.5126 0.0014 0.0000
vt 0.5061 0.0227 0.0000
vt 0.3503 0.0226 0.0000
vt 0.1894 0.1447 0.0000
vt 0.0345 0.1448 0.0000
vt 0.2922 0.1449 0.0000
vt 0.2480 0.1448 0.0000
vt 0.5058 0.1452 0.0000
vt 0.3509 0.1450 0.0000
vt 0.7585 0.0471 0.0000
vt 0.7585 0.0005 0.0000
vt 0.9563 0.0855 0.0000
vt 0.9260 0.1255 0.0000
vt 0.9927 0.1818 0.0000
vt 0.9927 0.2492 0.0000
vt 0.9387 0.2425 0.0000
vt 0.9387 0.1885 0.0000
vt 0.9260 0.3054 0.0000
vt 0.9563 0.3455 0.0000
vt 0.7585 0.4305 0.0000
vt 0.7585 0.3839 0.0000
vt 0.0049 0.3046 0.0000
vt 0.0209 0.2841 0.0000
vt 0.1876 0.2956 0.0000
vt 0.1907 0.3207 0.0000
vt 0.2474 0.2888 0.0000
vt 0.2926 0.2888 0.0000
vt 0.2946 0.3107 0.0000
vt 0.2453 0.3107 0.0000
vt 0.3489 0.3204 0.0000
vt 0.3522 0.2954 0.0000
vt 0.5191 0.2874 0.0000
vt 0.5348 0.3081 0.0000
vt 0.0312 0.2654 0.0000
vt 0.1871 0.2718 0.0000
vt 0.2479 0.2690 0.0000
vt 0.2921 0.2690 0.0000
vt 0.3529 0.2715 0.0000
vt 0.5089 0.2685 0.0000
vt 0.0331 0.2510 0.0000
vt 0.0339 0.1617 0.0000
vt 0.1886 0.1617 0.0000
vt 0.1878 0.2532 0.0000
vt 0.2492 0.1601 0.0000
vt 0.2909 0.1601 0.0000
vt 0.2910 0.2543 0.0000
vt 0.2490 0.2543 0.0000
vt 0.3524 0.2532 0.0000
vt 0.3516 0.1621 0.0000
vt 0.5064 0.1623 0.0000
vt 0.5072 0.2530 0.0000
vt 0.8903 0.1504 0.0000
vt 0.7585 0.0892 0.0000
vt 0.8990 0.2336 0.0000
vt 0.8990 0.1974 0.0000
vt 0.7585 0.3417 0.0000
vt 0.8903 0.2806 0.0000
vt 0.8633 0.1729 0.0000
vt 0.7585 0.1238 0.0000
vt 0.8659 0.2280 0.0000
vt 0.8659 0.2030 0.0000
vt 0.7585 0.3072 0.0000
vt 0.8633 0.2581 0.0000
vt 0.0305 0.3870 0.0000
vt 0.0738 0.4177 0.0000
vt 0.0686 0.5585 0.0000
vt 0.0232 0.5859 0.0000
vt 0.0896 0.4359 0.0000
vt 0.0857 0.5415 0.0000
vt 0.3374 0.0029 0.0000
vt 0.3350 0.0237 0.0000
vt 0.2053 0.0235 0.0000
vt 0.2031 0.0026 0.0000
vt 0.2038 0.1448 0.0000
vt 0.3364 0.1450 0.0000
vt 0.9767 0.3166 0.0000
vt 0.9293 0.2935 0.0000
vt 0.9293 0.1375 0.0000
vt 0.9767 0.1144 0.0000
vt 0.3379 0.2913 0.0000
vt 0.3418 0.3148 0.0000
vt 0.1980 0.3150 0.0000
vt 0.2020 0.2915 0.0000
vt 0.3368 0.2703 0.0000
vt 0.2032 0.2704 0.0000
vt 0.3383 0.1604 0.0000
vt 0.3387 0.2548 0.0000
vt 0.2014 0.2547 0.0000
vt 0.2018 0.1603 0.0000
vt 0.8928 0.2700 0.0000
vt 0.8928 0.1610 0.0000
vt 0.8626 0.2535 0.0000
vt 0.8626 0.1775 0.0000
vt 0.2391 0.1697 0.0000
vt 0.2117 0.1698 0.0000
vt 0.3285 0.1699 0.0000
vt 0.3010 0.1698 0.0000
vt 0.3011 0.2450 0.0000
vt 0.3285 0.2450 0.0000
vt 0.2116 0.2450 0.0000
vt 0.2390 0.2449 0.0000
vt 0.4260 0.5806 0.0000
vt 0.4500 0.6255 0.0000
vt 0.5020 0.5383 0.0000
vt 0.4507 0.5267 0.0000
vt 0.4525 0.4769 0.0000
vt 0.5046 0.4691 0.0000
vt 0.4591 0.3783 0.0000
vt 0.4319 0.4213 0.0000
vt 0.4112 0.5625 0.0000
vt 0.4310 0.5190 0.0000
vt 0.4323 0.4831 0.0000
vt 0.4158 0.4383 0.0000
vt 0.5119 0.6789 0.0000
vt 0.5054 0.7002 0.0000
vt 0.3496 0.7001 0.0000
vt 0.3474 0.6783 0.0000
vt 0.2922 0.6809 0.0000
vt 0.2909 0.7016 0.0000
vt 0.2480 0.7017 0.0000
vt 0.2467 0.6810 0.0000
vt 0.1915 0.6786 0.0000
vt 0.1894 0.7004 0.0000
vt 0.0336 0.7005 0.0000
vt 0.0271 0.6792 0.0000
vt 0.5052 0.8226 0.0000
vt 0.3503 0.8225 0.0000
vt 0.2474 0.8227 0.0000
vt 0.2917 0.8226 0.0000
vt 0.1888 0.8229 0.0000
vt 0.0339 0.8230 0.0000
vt 0.5910 0.1255 0.0000
vt 0.5606 0.0855 0.0000
vt 0.5243 0.1818 0.0000
vt 0.5783 0.1885 0.0000
vt 0.5783 0.2425 0.0000
vt 0.5243 0.2492 0.0000
vt 0.5910 0.3054 0.0000
vt 0.5606 0.3455 0.0000
vt 0.5348 0.9824 0.0000
vt 0.3490 0.9985 0.0000
vt 0.3520 0.9734 0.0000
vt 0.5188 0.9620 0.0000
vt 0.2923 0.9666 0.0000
vt 0.2943 0.9885 0.0000
vt 0.2451 0.9885 0.0000
vt 0.2471 0.9666 0.0000
vt 0.1908 0.9982 0.0000
vt 0.0049 0.9860 0.0000
vt 0.0206 0.9652 0.0000
vt 0.1875 0.9732 0.0000
vt 0.3526 0.9497 0.0000
vt 0.5084 0.9432 0.0000
vt 0.2918 0.9468 0.0000
vt 0.2476 0.9468 0.0000
vt 0.0307 0.9463 0.0000
vt 0.1867 0.9494 0.0000
vt 0.5065 0.9288 0.0000
vt 0.3518 0.9310 0.0000
vt 0.3511 0.8395 0.0000
vt 0.5058 0.8395 0.0000
vt 0.2905 0.8379 0.0000
vt 0.2906 0.9321 0.0000
vt 0.2486 0.9321 0.0000
vt 0.2487 0.8379 0.0000
vt 0.1873 0.9310 0.0000
vt 0.0325 0.9308 0.0000
vt 0.0333 0.8401 0.0000
vt 0.1881 0.8399 0.0000
vt 0.6266 0.1504 0.0000
vt 0.6180 0.1974 0.0000
vt 0.6180 0.2336 0.0000
vt 0.6266 0.2806 0.0000
vt 0.6537 0.1729 0.0000
vt 0.6511 0.2030 0.0000
vt 0.6511 0.2280 0.0000
vt 0.6537 0.2581 0.0000
vt 0.4819 0.4034 0.0000
vt 0.4364 0.4307 0.0000
vt 0.4312 0.5715 0.0000
vt 0.4745 0.6022 0.0000
vt 0.4194 0.4478 0.0000
vt 0.4155 0.5533 0.0000
vt 0.2023 0.6807 0.0000
vt 0.2046 0.7015 0.0000
vt 0.3343 0.7013 0.0000
vt 0.3366 0.6804 0.0000
vt 0.3358 0.8226 0.0000
vt 0.2033 0.8228 0.0000
vt 0.5402 0.3166 0.0000
vt 0.5877 0.2935 0.0000
vt 0.5877 0.1375 0.0000
vt 0.5402 0.1144 0.0000
vt 0.2017 0.9691 0.0000
vt 0.1978 0.9926 0.0000
vt 0.3416 0.9928 0.0000
vt 0.3377 0.9693 0.0000
vt 0.2029 0.9481 0.0000
vt 0.3364 0.9482 0.0000
vt 0.2013 0.8382 0.0000
vt 0.2009 0.9326 0.0000
vt 0.3383 0.9326 0.0000
vt 0.3379 0.8381 0.0000
vt 0.6241 0.2700 0.0000
vt 0.6241 0.1610 0.0000
vt 0.6544 0.2535 0.0000
vt 0.6544 0.1775 0.0000
vt 0.3280 0.8476 0.0000
vt 0.3005 0.8475 0.0000
vt 0.2387 0.8476 0.0000
vt 0.2112 0.8477 0.0000
vt 0.2111 0.9228 0.0000
vt 0.2386 0.9228 0.0000
vt 0.3006 0.9227 0.0000
vt 0.3281 0.9228 0.0000
vt 0.5707 0.7927 0.0000
vt 0.5812 0.7927 0.0000
vt 0.5812 0.8961 0.0000
vt 0.5707 0.8961 0.0000
vt 0.6797 0.7928 0.0000
vt 0.6901 0.7928 0.0000
vt 0.6901 0.8961 0.0000
vt 0.6797 0.8961 0.0000
vt 0.6468 0.7928 0.0000
vt 0.6468 0.8961 0.0000
vt 0.6468 0.9995 0.0000
vt 0.6140 0.9995 0.0000
vt 0.6140 0.8961 0.0000
vt 0.6140 0.7927 0.0000
vt 0.5812 0.9995 0.0000
vt 0.5707 0.9995 0.0000
vt 0.6901 0.9995 0.0000
vt 0.6797 0.9995 0.0000
vt 0.5111 0.8961 0.0000
vt 0.7498 0.8961 0.0000
# 262 texture coords

o Cylinder001
g Cylinder001
s 8
f 1/1/1 2/2/2 3/3/3 4/4/4 
f 5/5/5 6/6/5 7/7/6 8/8/6 
f 9/9/7 10/10/8 11/11/9 12/12/10 
s off
f 4/4/4 3/3/3 13/13/11 14/14/12 
f 8/8/6 7/7/6 15/15/13 16/16/13 
f 12/12/10 11/11/9 17/17/14 18/18/15 
f 14/19/12 13/20/11 19/21/16 20/22/17 
f 16/23/13 15/24/13 21/25/18 22/26/18 
f 18/27/15 17/28/14 23/29/19 24/30/20 
f 19/21/16 25/31/21 26/32/1 20/22/17 
f 27/33/5 28/34/5 22/26/18 21/25/18 
f 23/29/19 29/35/8 30/36/7 24/30/20 
s 8
f 31/37/22 32/38/23 33/39/24 34/40/25 
f 35/41/26 36/42/26 37/43/27 38/44/27 
f 39/45/28 40/46/29 41/47/30 42/48/31 
s off
f 32/49/23 43/50/32 44/51/33 33/52/24 
f 45/53/34 46/54/34 36/55/26 35/56/26 
f 40/57/29 47/58/35 48/59/36 41/60/30 
f 43/50/32 49/61/37 50/62/38 44/51/33 
f 51/63/39 52/64/39 46/54/34 45/53/34 
f 47/58/35 53/65/40 54/66/41 48/59/36 
f 55/67/1 56/68/1 57/69/21 58/70/21 
f 59/71/42 60/72/43 61/73/44 62/74/45 
f 63/75/7 64/76/7 65/77/8 66/78/8 
f 31/37/22 34/40/25 67/79/46 68/80/47 
f 38/44/27 37/43/27 69/81/48 70/82/48 
f 39/45/28 42/48/31 71/83/49 72/84/50 
f 68/80/47 67/79/46 73/85/51 74/86/52 
f 70/82/48 69/81/48 75/87/48 76/88/48 
f 72/84/50 71/83/49 77/89/53 78/90/54 
f 56/68/1 26/32/1 25/31/21 57/69/21 
f 58/70/21 50/62/38 49/61/37 55/67/1 
f 28/34/5 27/33/5 60/72/43 59/71/42 
f 52/64/39 51/63/39 62/74/45 61/73/44 
f 64/76/7 30/36/7 29/35/8 65/77/8 
f 66/78/8 54/66/41 53/65/40 63/75/7 
s 8
f 79/91/55 9/9/7 12/12/10 80/92/56 
f 6/6/5 79/91/55 80/92/56 7/7/6 
f 81/93/56 3/3/3 2/2/2 82/94/55 
f 8/8/6 81/93/56 82/94/55 5/5/5 
s off
f 80/92/56 12/12/10 18/18/15 83/95/57 
f 7/7/6 80/92/56 83/95/57 15/15/13 
f 84/96/57 13/13/11 3/3/3 81/93/56 
f 16/16/13 84/96/57 81/93/56 8/8/6 
f 83/97/57 18/27/15 24/30/20 85/98/18 
f 15/24/13 83/97/57 85/98/18 21/25/18 
f 86/99/18 19/21/16 13/20/11 84/100/57 
f 22/26/18 86/99/18 84/100/57 16/23/13 
f 87/101/58 25/31/21 19/21/16 86/99/18 
f 28/34/5 87/101/58 86/99/18 22/26/18 
f 85/98/18 24/30/20 30/36/7 88/102/58 
f 21/25/18 85/98/18 88/102/58 27/33/5 
s 8
f 89/103/59 40/46/29 39/45/28 90/104/60 
f 36/42/26 89/103/59 90/104/60 37/43/27 
f 91/105/60 34/40/25 33/39/24 92/106/59 
f 38/44/27 91/105/60 92/106/59 35/41/26 
s off
f 93/107/61 47/58/35 40/57/29 89/108/59 
f 46/54/34 93/107/61 89/108/59 36/55/26 
f 92/109/59 33/52/24 44/51/33 94/110/61 
f 35/56/26 92/109/59 94/110/61 45/53/34 
f 95/111/39 53/65/40 47/58/35 93/107/61 
f 52/64/39 95/111/39 93/107/61 46/54/34 
f 94/110/61 44/51/33 50/62/38 96/112/39 
f 45/53/34 94/110/61 96/112/39 51/63/39 
f 97/113/42 64/76/7 63/75/7 98/114/45 
f 99/115/44 58/70/21 57/69/21 100/116/43 
f 90/104/60 39/45/28 72/84/50 101/117/48 
f 37/43/27 90/104/60 101/117/48 69/81/48 
f 102/118/48 67/79/46 34/40/25 91/105/60 
f 70/82/48 102/118/48 91/105/60 38/44/27 
f 101/117/48 72/84/50 78/90/54 103/119/48 
f 69/81/48 101/117/48 103/119/48 75/87/48 
f 104/120/48 73/85/51 67/79/46 102/118/48 
f 76/88/48 104/120/48 102/118/48 70/82/48 
f 88/102/58 30/36/7 64/76/7 97/113/42 
f 27/33/5 88/102/58 97/113/42 60/72/43 
f 100/116/43 57/69/21 25/31/21 87/101/58 
f 59/71/42 100/116/43 87/101/58 28/34/5 
f 96/112/39 50/62/38 58/70/21 99/115/44 
f 51/63/39 96/112/39 99/115/44 62/74/45 
f 98/114/45 63/75/7 53/65/40 95/111/39 
f 61/73/44 98/114/45 95/111/39 52/64/39 
f 100/116/43 59/71/42 105/121/62 106/122/63 
f 60/72/43 97/113/42 107/123/62 108/124/63 
f 98/114/45 61/73/44 109/125/64 110/126/65 
f 62/74/45 99/115/44 111/127/64 112/128/65 
f 97/113/42 98/114/45 110/126/65 107/123/62 
f 61/73/44 60/72/43 108/124/63 109/125/64 
f 99/115/44 100/116/43 106/122/63 111/127/64 
f 59/71/42 62/74/45 112/128/65 105/121/62 
f 105/121/62 112/128/65 111/127/64 106/122/63 
f 107/123/62 110/126/65 109/125/64 108/124/63 
s 8
f 1/1/1 4/4/4 113/129/66 114/130/67 
f 115/131/68 116/132/69 117/133/69 118/134/68 
f 119/135/70 120/136/71 11/11/9 10/10/8 
s off
f 4/4/4 14/14/12 121/137/72 113/129/66 
f 116/132/69 122/138/73 123/139/73 117/133/69 
f 120/136/71 124/140/74 17/17/14 11/11/9 
f 14/141/12 20/142/17 125/143/75 121/144/72 
f 122/145/73 126/146/76 127/147/76 123/148/73 
f 124/149/74 128/150/77 23/151/19 17/152/14 
f 125/143/75 20/142/17 26/153/1 129/154/78 
f 130/155/68 127/147/76 126/146/76 131/156/68 
f 23/151/19 128/150/77 132/157/70 29/158/8 
s 8
f 31/37/22 133/159/79 134/160/80 32/38/23 
f 135/161/81 136/162/82 137/163/82 138/164/81 
f 139/165/83 42/48/31 41/47/30 140/166/84 
s off
f 32/167/23 134/168/80 141/169/85 43/170/32 
f 142/171/86 135/172/81 138/173/81 143/174/86 
f 140/175/84 41/176/30 48/177/36 144/178/87 
f 43/170/32 141/169/85 145/179/88 49/180/37 
f 146/181/89 142/171/86 143/174/86 147/182/89 
f 144/178/87 48/177/36 54/183/41 148/184/90 
f 55/185/1 149/186/78 150/187/78 56/188/1 
f 151/189/91 152/190/92 153/191/93 154/192/94 
f 155/193/70 66/194/8 65/195/8 156/196/70 
f 31/37/22 68/80/47 157/197/95 133/159/79 
f 136/162/82 158/198/96 159/199/96 137/163/82 
f 139/165/83 160/200/97 71/83/49 42/48/31 
f 68/80/47 74/86/52 161/201/98 157/197/95 
f 158/198/96 162/202/96 163/203/96 159/199/96 
f 160/200/97 164/204/99 77/89/53 71/83/49 
f 56/188/1 150/187/78 129/154/78 26/153/1 
f 149/186/78 55/185/1 49/180/37 145/179/88 
f 131/156/68 151/189/91 154/192/94 130/155/68 
f 147/182/89 153/191/93 152/190/92 146/181/89 
f 156/196/70 65/195/8 29/158/8 132/157/70 
f 66/194/8 155/193/70 148/184/90 54/183/41 
s 8
f 165/205/100 166/206/101 120/136/71 119/135/70 
f 118/134/68 117/133/69 166/206/101 165/205/100 
f 167/207/101 168/208/100 114/130/67 113/129/66 
f 116/132/69 115/131/68 168/208/100 167/207/101 
s off
f 166/206/101 169/209/102 124/140/74 120/136/71 
f 117/133/69 123/139/73 169/209/102 166/206/101 
f 170/210/102 167/207/101 113/129/66 121/137/72 
f 122/138/73 116/132/69 167/207/101 170/210/102 
f 169/211/102 171/212/76 128/150/77 124/149/74 
f 123/148/73 127/147/76 171/212/76 169/211/102 
f 172/213/76 170/214/102 121/144/72 125/143/75 
f 126/146/76 122/145/73 170/214/102 172/213/76 
f 173/215/103 172/213/76 125/143/75 129/154/78 
f 131/156/68 126/146/76 172/213/76 173/215/103 
f 171/212/76 174/216/103 132/157/70 128/150/77 
f 127/147/76 130/155/68 174/216/103 171/212/76 
s 8
f 175/217/104 176/218/105 139/165/83 140/166/84 
f 138/164/81 137/163/82 176/218/105 175/217/104 
f 177/219/105 178/220/104 134/160/80 133/159/79 
f 136/162/82 135/161/81 178/220/104 177/219/105 
s off
f 179/221/106 175/222/104 140/175/84 144/178/87 
f 143/174/86 138/173/81 175/222/104 179/221/106 
f 178/223/104 180/224/106 141/169/85 134/168/80 
f 135/172/81 142/171/86 180/224/106 178/223/104 
f 181/225/89 179/221/106 144/178/87 148/184/90 
f 147/182/89 143/174/86 179/221/106 181/225/89 
f 180/224/106 182/226/89 145/179/88 141/169/85 
f 142/171/86 146/181/89 182/226/89 180/224/106 
f 183/227/91 184/228/92 155/193/70 156/196/70 
f 185/229/93 186/230/94 150/187/78 149/186/78 
f 176/218/105 187/231/96 160/200/97 139/165/83 
f 137/163/82 159/199/96 187/231/96 176/218/105 
f 188/232/96 177/219/105 133/159/79 157/197/95 
f 158/198/96 136/162/82 177/219/105 188/232/96 
f 187/231/96 189/233/96 164/204/99 160/200/97 
f 159/199/96 163/203/96 189/233/96 187/231/96 
f 190/234/96 188/232/96 157/197/95 161/201/98 
f 162/202/96 158/198/96 188/232/96 190/234/96 
f 174/216/103 183/227/91 156/196/70 132/157/70 
f 130/155/68 154/192/94 183/227/91 174/216/103 
f 186/230/94 173/215/103 129/154/78 150/187/78 
f 151/189/91 131/156/68 173/215/103 186/230/94 
f 182/226/89 185/229/93 149/186/78 145/179/88 
f 146/181/89 152/190/92 185/229/93 182/226/89 
f 184/228/92 181/225/89 148/184/90 155/193/70 
f 153/191/93 147/182/89 181/225/89 184/228/92 
f 186/230/94 191/235/107 192/236/108 151/189/91 
f 154/192/94 193/237/107 194/238/108 183/227/91 
f 184/228/92 195/239/109 196/240/110 153/191/93 
f 152/190/92 197/241/109 198/242/110 185/229/93 
f 183/227/91 194/238/108 195/239/109 184/228/92 
f 153/191/93 196/240/110 193/237/107 154/192/94 
f 185/229/93 198/242/110 191/235/107 186/230/94 
f 151/189/91 192/236/108 197/241/109 152/190/92 
f 192/236/108 191/235/107 198/242/110 197/241/109 
f 194/238/108 193/237/107 196/240/110 195/239/109 
s 1
f 164/243/99 189/244/96 199/245/111 200/246/111 
f 190/247/96 161/248/98 201/249/111 202/250/111 
s 2
f 162/251/96 190/247/96 202/250/111 203/252/111 
s off
f 76/253/48 75/254/48 204/255/111 203/252/111 
f 189/244/96 163/256/96 204/255/111 199/245/111 
s 1
f 199/245/111 103/257/48 78/258/54 200/246/111 
f 201/249/111 73/259/51 104/260/48 202/250/111 
s 2
f 202/250/111 104/260/48 76/253/48 203/252/111 
s off
f 204/255/111 163/256/96 162/251/96 203/252/111 
f 204/255/111 75/254/48 103/257/48 199/245/111 
s 2
f 78/258/54 77/261/53 200/246/111 
f 73/259/51 201/249/111 74/262/52 
s off
f 74/262/52 201/249/111 161/248/98 
f 164/243/99 200/246/111 77/261/53 
# 194 polygons - 4 triangles

