# 3ds Max Wavefront OBJ Exporter v0.97b - (c)2007 guruware
# File Created: 16.10.2018 00:41:55

#
# object tree001
#

v  0.0062 2.9456 0.1432
v  0.2554 2.7458 0.2357
v  0.4247 2.5366 0.1327
v  0.2237 2.7442 -0.0054
v  0.4412 2.5428 -0.1541
v  0.2587 2.7248 -0.2914
v  0.0129 2.9292 -0.0971
v  0.4703 2.1536 -0.2795
v  0.5739 1.9695 -0.2225
v  0.4993 1.7643 -0.4049
v  0.3457 2.2656 -0.3713
v  0.2501 1.9884 -0.5885
v  0.1557 2.4046 -0.4948
v  0.1073 1.4651 -0.6576
v  -0.1330 1.4512 -0.6593
v  -0.2770 1.9812 -0.5810
v  -0.1311 2.3658 -0.4968
v  -0.4918 1.7278 -0.4246
v  -0.5657 2.0034 -0.2360
v  -0.3443 2.2573 -0.3465
v  -0.4116 2.5334 -0.1120
v  -0.2412 2.3741 -0.4351
v  -0.2054 2.7670 -0.2892
v  -0.4282 2.5327 0.1748
v  -0.2086 2.6800 0.2379
v  -0.2027 2.7395 0.0156
v  -0.4619 2.1182 0.3015
v  -0.5487 2.0242 0.2280
v  -0.4957 1.7038 0.4283
v  -0.3449 2.2332 0.3667
v  -0.2617 1.9338 0.5586
v  -0.1482 2.4260 0.4943
v  -0.1222 1.4787 0.6576
v  0.1181 1.4311 0.6593
v  0.2654 1.8552 0.5511
v  0.1385 2.3369 0.4963
v  0.4954 1.7565 0.4480
v  0.5910 2.0956 0.2415
v  0.3451 2.1959 0.3419
v  0.2604 2.3005 0.3934
v  0.6552 1.6616 0.0156
v  0.6616 1.3259 -0.0134
v  0.5824 1.2165 -0.2788
v  0.4967 1.3274 -0.4373
v  0.4951 1.3244 0.4156
v  0.5558 1.2579 0.1852
v  -0.2523 1.2505 0.5812
v  -0.1595 1.1334 0.4984
v  0.1273 1.1108 0.4936
v  0.2748 1.2242 0.5566
v  0.2339 1.0491 0.3035
v  0.4503 1.0808 0.1491
v  0.4123 1.0822 -0.1377
v  0.1979 1.0451 -0.2236
v  0.1520 1.1279 -0.4975
v  0.3068 1.2691 -0.5831
v  0.0195 1.0072 0.0861
v  -0.0084 1.0048 -0.1542
v  -0.4960 1.3047 0.4219
v  -0.5839 1.2343 0.2218
v  -0.4026 1.0799 0.1705
v  -0.2301 1.0367 0.2533
v  -0.4406 1.0801 -0.1162
v  -0.2662 1.0532 -0.2738
v  -0.1348 1.1180 -0.4927
v  -0.2203 1.2667 -0.5584
v  -0.5572 1.2275 -0.2422
v  -0.4944 1.3136 -0.4309
v  -0.6616 1.6844 0.0213
v  -0.6552 1.3346 -0.0015
v  0.5400 2.0991 0.0742
v  -0.5449 2.1086 0.0981
v  -0.5366 2.1089 -0.0453
v  -0.0293 0.0000 -0.1875
v  0.1559 0.0000 -0.2477
v  0.2704 0.0000 -0.0901
v  -0.0293 0.0000 0.0072
v  0.1559 0.0000 0.0674
v  0.1487 0.3765 -0.2036
v  0.2311 0.3441 -0.0841
v  0.0056 0.3614 -0.1663
v  -0.0006 0.3195 -0.0237
v  0.1388 0.3088 0.0271
v  -0.0579 1.2412 0.0001
v  -0.1289 1.2034 -0.0100
v  -0.1336 1.1439 0.0450
v  -0.0656 1.1450 0.0890
v  -0.0187 1.2051 0.0613
v  0.1276 0.5749 -0.1534
v  0.2201 0.5885 -0.0318
v  -0.0174 0.5819 -0.1037
v  -0.0144 0.5999 0.0486
v  0.1323 0.6040 0.0930
v  0.1157 0.8940 -0.0702
v  0.1597 0.9177 -0.0053
v  0.0416 0.8712 -0.0436
v  0.0399 0.8808 0.0377
v  0.1128 0.9095 0.0614
# 98 vertices

vn -0.0420 0.9339 0.3551
vn 0.4795 0.7767 0.4085
vn 0.7645 0.5883 0.2636
vn 0.5510 0.8337 0.0363
vn 0.7944 0.5645 -0.2243
vn 0.4664 0.7261 -0.5053
vn -0.0119 0.9845 -0.1751
vn 0.7145 0.3613 -0.5991
vn 0.9084 0.2739 -0.3157
vn 0.7808 0.1578 -0.6045
vn 0.6606 0.3977 -0.6367
vn 0.3817 0.2715 -0.8835
vn 0.2460 0.5057 -0.8269
vn 0.1081 -0.1718 -0.9792
vn -0.1862 -0.2081 -0.9602
vn -0.4200 0.2772 -0.8642
vn -0.1676 0.4807 -0.8607
vn -0.7896 0.1079 -0.6041
vn -0.8820 0.3132 -0.3520
vn -0.7102 0.4354 -0.5533
vn -0.7656 0.6127 -0.1962
vn -0.5967 0.4439 -0.6685
vn -0.4276 0.7771 -0.4619
vn -0.7167 0.6452 0.2647
vn -0.3749 0.8036 0.4622
vn -0.5731 0.8187 0.0368
vn -0.6886 0.3636 0.6274
vn -0.8854 0.2807 0.3706
vn -0.7873 0.1094 0.6068
vn -0.6473 0.3649 0.6692
vn -0.3701 0.2567 0.8928
vn -0.1981 0.5629 0.8024
vn -0.1554 -0.0956 0.9832
vn 0.1543 -0.1792 0.9716
vn 0.3596 0.2473 0.8997
vn 0.2804 0.4465 0.8497
vn 0.6835 0.1080 0.7219
vn 0.8633 0.3822 0.3295
vn 0.5696 0.4336 0.6982
vn 0.6633 0.3535 0.6596
vn 0.9954 0.0851 0.0435
vn 0.9217 -0.3800 0.0783
vn 0.7639 -0.5584 -0.3234
vn 0.7327 -0.2085 -0.6478
vn 0.7084 -0.4398 0.5520
vn 0.7925 -0.5363 0.2903
vn -0.3003 -0.5217 0.7985
vn -0.1375 -0.8311 0.5388
vn 0.0927 -0.8465 0.5243
vn 0.4145 -0.5762 0.7044
vn 0.1744 -0.9582 0.2267
vn 0.4980 -0.8524 0.1595
vn 0.3227 -0.9417 -0.0957
vn 0.1485 -0.9770 -0.1533
vn 0.0930 -0.8469 -0.5236
vn 0.3721 -0.4689 -0.8010
vn 0.0136 -0.9988 0.0471
vn 0.0014 -0.9966 -0.0823
vn -0.6987 -0.4113 0.5853
vn -0.8280 -0.4816 0.2871
vn -0.3502 -0.9265 0.1376
vn -0.1704 -0.9706 0.1699
vn -0.4295 -0.9011 -0.0599
vn -0.2679 -0.9287 -0.2564
vn -0.1207 -0.8214 -0.5575
vn -0.2832 -0.5656 -0.7745
vn -0.7692 -0.5623 -0.3036
vn -0.6948 -0.3991 -0.5983
vn -0.9940 0.1041 0.0349
vn -0.9278 -0.3720 -0.0301
vn 0.9154 0.3799 -0.1330
vn -0.9300 0.3658 0.0363
vn -0.9202 0.3903 -0.0307
vn -0.6844 -0.5352 -0.4950
vn 0.2599 -0.5353 -0.8037
vn 0.8437 -0.5368 -0.0013
vn -0.6837 -0.5269 0.5049
vn 0.2557 -0.5259 0.8112
vn 0.3431 0.2808 -0.8964
vn 0.9892 0.1466 -0.0049
vn -0.7391 0.1803 -0.6490
vn -0.8588 -0.0102 0.5122
vn 0.2835 -0.0196 0.9588
vn 0.0458 0.9529 -0.2997
vn -0.7621 0.4939 -0.4186
vn -0.9283 -0.0082 0.3719
vn -0.2693 0.1862 0.9449
vn 0.3591 0.7791 0.5138
vn 0.2668 0.3553 -0.8959
vn 0.9909 0.1318 0.0267
vn -0.8394 0.1952 -0.5072
vn -0.7933 -0.0244 0.6083
vn 0.3069 -0.0635 0.9496
vn 0.3109 0.3787 -0.8717
vn 0.8932 0.4494 -0.0140
vn -0.7440 0.0137 -0.6681
vn -0.7016 -0.2187 0.6782
vn 0.4082 0.1926 0.8923
# 98 vertex normals

vt 0.0303 0.6427 0.0666
vt 0.1203 0.5871 -0.0059
vt 0.1957 0.6337 -0.0666
vt 0.1130 0.6938 0.0000
vt 0.1957 0.7449 -0.0666
vt 0.1203 0.7915 -0.0059
vt 0.0303 0.7359 0.0666
vt 0.0714 0.2826 0.0929
vt 0.0565 0.2449 0.2040
vt 0.1423 0.1944 0.1295
vt 0.1073 0.3048 -0.0297
vt 0.2141 0.2388 -0.1157
vt 0.0005 0.3708 0.0564
vt 0.1607 0.3340 -0.2040
vt 0.0518 0.4060 -0.1263
vt 0.9159 0.2102 -0.0059
vt 0.8258 0.1545 0.0667
vt 0.8258 0.0612 0.0667
vt 0.9159 0.0055 -0.0059
vt 0.9914 0.0521 -0.0667
vt 0.9914 0.1635 -0.0667
vt 0.0475 0.9336 0.2388
vt 0.0005 0.8105 0.0782
vt 0.0643 0.7711 -0.1395
vt 0.1175 0.8904 0.0000
vt 0.1874 0.8472 -0.2388
vt 0.1378 0.9541 0.0915
vt 0.2280 0.9745 -0.0557
vt 0.1379 0.9978 0.1834
vt 0.6120 0.3072 -0.0624
vt 0.6120 0.2032 -0.0624
vt 0.6825 0.1596 -0.0055
vt 0.6894 0.2594 -0.0000
vt 0.7667 0.2116 0.0624
vt 0.7667 0.2988 0.0624
vt 0.6825 0.3508 -0.0055
vt 0.7654 0.0930 -0.1090
vt 0.7966 0.0782 -0.2060
vt 0.6991 0.0104 -0.1432
vt 0.7318 0.1137 0.0057
vt 0.6319 0.0520 0.0863
vt 0.8318 0.1755 -0.0748
vt 0.6702 0.1470 0.2060
vt 0.7796 0.2074 0.1025
vt 0.0911 0.3883 0.0059
vt 0.0005 0.4443 -0.0671
vt 0.0005 0.5381 -0.0671
vt 0.0911 0.5941 0.0059
vt 0.1670 0.5472 0.0671
vt 0.1670 0.4352 0.0671
vt 0.0481 0.0728 -0.2419
vt 0.0005 0.1976 -0.0792
vt 0.0651 0.2375 0.1414
vt 0.1190 0.1166 0.0000
vt 0.1898 0.1604 0.2419
vt 0.1496 0.0674 -0.0393
vt 0.2510 0.0620 0.1633
vt 0.1682 0.0005 -0.1412
vt 0.5306 0.3524 -0.0054
vt 0.4479 0.3013 0.0612
vt 0.4479 0.2157 0.0612
vt 0.5306 0.1646 -0.0054
vt 0.5999 0.2074 -0.0612
vt 0.5999 0.3096 -0.0612
vt 0.3246 0.4543 0.0585
vt 0.2457 0.5031 -0.0052
vt 0.1795 0.4622 -0.0585
vt 0.1795 0.3646 -0.0585
vt 0.2457 0.3236 -0.0052
vt 0.3246 0.3725 0.0585
vt 0.5135 0.6375 -0.0485
vt 0.4481 0.5971 0.0043
vt 0.3933 0.6310 0.0485
vt 0.3933 0.7118 0.0485
vt 0.4481 0.7457 0.0043
vt 0.5135 0.7053 -0.0485
vt 0.4663 0.0537 -0.2017
vt 0.5571 0.0005 -0.1224
vt 0.6241 0.0228 0.0660
vt 0.5844 0.1267 0.2017
vt 0.4973 0.1806 0.1314
vt 0.4330 0.1409 -0.0880
vt 0.8438 0.8425 0.1926
vt 0.8059 0.7432 0.0631
vt 0.8573 0.7114 -0.1126
vt 0.9566 0.7728 -0.1926
vt 0.9884 0.8560 -0.0841
vt 0.9271 0.8940 0.1255
vt 0.6321 0.4763 0.0582
vt 0.6321 0.3792 0.0582
vt 0.5663 0.3386 0.0051
vt 0.4877 0.3871 -0.0582
vt 0.4877 0.4685 -0.0582
vt 0.5663 0.5170 0.0051
vt 0.3418 0.3006 -0.1926
vt 0.3798 0.2013 -0.0631
vt 0.3283 0.1695 0.1126
vt 0.2290 0.2309 0.1926
vt 0.1944 0.2936 0.1334
vt 0.2668 0.3296 -0.0953
vt 0.6468 0.5244 0.0596
vt 0.6468 0.6239 0.0596
vt 0.7142 0.6655 0.0053
vt 0.7947 0.6158 -0.0596
vt 0.7947 0.5325 -0.0596
vt 0.7142 0.4827 0.0053
vt 0.3435 0.8376 -0.0470
vt 0.3435 0.7592 -0.0470
vt 0.3967 0.7263 -0.0041
vt 0.4601 0.7656 0.0470
vt 0.4601 0.8313 0.0470
vt 0.3967 0.8705 -0.0041
vt 0.8027 0.3884 0.1992
vt 0.7139 0.3485 0.0961
vt 0.6468 0.3578 -0.0652
vt 0.6860 0.4606 -0.1992
vt 0.7721 0.5138 -0.1298
vt 0.8356 0.4745 0.0869
vt 0.7810 0.2182 0.0625
vt 0.7810 0.3226 0.0625
vt 0.8518 0.3663 0.0055
vt 0.9362 0.3141 -0.0625
vt 0.9362 0.2267 -0.0625
vt 0.8518 0.1745 0.0055
vt 0.8357 0.4662 -0.0616
vt 0.9189 0.5176 0.0054
vt 0.9886 0.4745 0.0616
vt 0.9886 0.3717 0.0616
vt 0.9189 0.3286 0.0054
vt 0.8357 0.3800 -0.0616
vt 0.4920 0.3340 0.0222
vt 0.4580 0.4232 -0.0941
vt 0.3478 0.4232 -0.0941
vt 0.3137 0.3340 0.0222
vt 0.4029 0.2789 0.0941
vt 0.3137 0.5265 0.0220
vt 0.3475 0.4380 -0.0934
vt 0.4569 0.4380 -0.0934
vt 0.4906 0.5265 0.0220
vt 0.4022 0.5811 0.0934
vt 0.3248 0.0833 -0.0000
vt 0.2540 0.0637 0.0255
vt 0.3564 0.0005 0.1080
vt 0.2931 0.1661 -0.1080
vt 0.4587 0.0637 0.0255
vt 0.4196 0.1661 -0.1080
vt 0.3883 0.6661 -0.0198
vt 0.3087 0.6170 -0.0839
vt 0.2292 0.6661 -0.0198
vt 0.2596 0.7457 0.0839
vt 0.3579 0.7457 0.0839
vt 0.7562 0.9530 0.0181
vt 0.7839 0.8805 -0.0766
vt 0.8736 0.8805 -0.0766
vt 0.9013 0.9530 0.0181
vt 0.8288 0.9979 0.0766
vt 0.6042 0.5225 0.0857
vt 0.5038 0.5225 0.0857
vt 0.4728 0.6037 -0.0202
vt 0.5540 0.6539 -0.0857
vt 0.6352 0.6037 -0.0202
vt 0.6389 0.6219 -0.0808
vt 0.5623 0.6693 -0.0191
vt 0.5915 0.7459 0.0808
vt 0.6862 0.7459 0.0808
vt 0.7155 0.6693 -0.0191
vt 0.6999 0.7263 0.0780
vt 0.6717 0.8003 -0.0184
vt 0.7456 0.8460 -0.0780
vt 0.8196 0.8003 -0.0184
vt 0.7913 0.7263 0.0780
vt 0.1937 0.5076 -0.0942
vt 0.3041 0.5076 -0.0942
vt 0.3382 0.5969 0.0222
vt 0.2489 0.6521 0.0942
vt 0.1596 0.5969 0.0222
vt 0.2785 0.9126 0.0000
vt 0.2043 0.8921 -0.0267
vt 0.2453 0.9995 0.1133
vt 0.3449 0.9126 0.0000
vt 0.3781 0.9995 0.1133
vt 0.3117 0.8258 -0.1133
vt 0.4191 0.8921 -0.0267
vt 0.7235 0.8606 0.0889
vt 0.6193 0.8606 0.0889
vt 0.5871 0.9449 -0.0210
vt 0.6714 0.9970 -0.0889
vt 0.7557 0.9449 -0.0210
vt 0.5985 0.9064 0.0225
vt 0.5641 0.9966 -0.0952
vt 0.4526 0.9966 -0.0952
vt 0.4181 0.9064 0.0225
vt 0.5083 0.8506 0.0952
vt 0.9121 0.5225 -0.1023
vt 0.9895 0.5225 0.4333
vt 0.9528 0.5225 0.4333
vt 0.8274 0.5225 -0.4333
vt 0.8526 0.5225 -0.1023
vt 0.9895 0.7062 0.4333
vt 0.9528 0.7062 0.4333
vt 0.8059 0.5225 0.4333
vt 0.8426 0.5225 0.4333
vt 0.8426 0.7062 0.4333
vt 0.8059 0.7062 0.4333
vt 0.8794 0.5225 0.4333
vt 0.8794 0.7062 0.4333
vt 0.9161 0.5225 0.4333
vt 0.9161 0.7062 0.4333
vt 0.9121 0.7062 -0.1023
vt 0.8274 0.7062 -0.4333
# 210 texture coords

o tree001
g tree001
s off
f 1/1/1 2/2/2 3/3/3 
f 4/4/4 3/3/3 5/5/5 
f 1/1/1 4/4/4 6/6/6 
f 1/1/1 6/6/6 7/7/7 
f 8/8/8 9/9/9 10/10/10 
f 11/11/11 10/10/10 12/12/12 
f 5/13/5 11/11/11 13/14/13 
f 5/13/5 13/14/13 6/15/6 
f 12/16/12 14/17/14 15/18/15 
f 12/16/12 15/18/15 16/19/16 
f 12/16/12 16/19/16 17/20/17 
f 12/16/12 17/20/17 13/21/13 
f 16/22/16 18/23/18 19/24/19 
f 20/25/20 19/24/19 21/26/21 
f 22/27/22 20/25/20 23/28/23 
f 16/22/16 22/27/22 17/29/17 
f 21/30/21 24/31/24 25/32/25 
f 26/33/26 25/32/25 1/34/1 
f 21/30/21 26/33/26 7/35/7 
f 21/30/21 7/35/7 23/36/23 
f 27/37/27 28/38/28 29/39/29 
f 30/40/30 27/37/27 31/41/31 
f 24/42/24 30/40/30 32/43/32 
f 24/42/24 32/43/32 25/44/25 
f 31/45/31 33/46/33 34/47/34 
f 31/45/31 34/47/34 35/48/35 
f 31/45/31 35/48/35 36/49/36 
f 31/45/31 36/49/36 32/50/32 
f 35/51/35 37/52/37 38/53/38 
f 39/54/39 38/53/38 3/55/3 
f 40/56/40 3/55/3 2/57/2 
f 35/51/35 40/56/40 36/58/36 
f 9/59/9 41/60/41 42/61/42 
f 9/59/9 42/61/42 43/62/43 
f 9/59/9 43/62/43 44/63/44 
f 9/59/9 44/63/44 10/64/10 
f 41/65/41 38/66/38 37/67/37 
f 41/65/41 37/67/37 45/68/45 
f 41/65/41 45/68/45 46/69/46 
f 41/65/41 46/69/46 42/70/42 
f 33/71/33 47/72/47 48/73/48 
f 33/71/33 48/73/48 49/74/49 
f 33/71/33 49/74/49 50/75/50 
f 33/71/33 50/75/50 34/76/34 
f 49/77/49 51/78/51 52/79/52 
f 49/77/49 52/79/52 46/80/46 
f 49/77/49 46/80/46 45/81/45 
f 49/77/49 45/81/45 50/82/50 
f 43/83/43 53/84/53 54/85/54 
f 43/83/43 54/85/54 55/86/55 
f 43/83/43 55/86/55 56/87/56 
f 43/83/43 56/87/56 44/88/44 
f 53/89/53 52/90/52 51/91/51 
f 53/89/53 51/91/51 57/92/57 
f 53/89/53 57/92/57 58/93/58 
f 53/89/53 58/93/58 54/94/54 
f 47/95/47 59/96/59 60/97/60 
f 47/95/47 60/97/60 61/98/61 
f 47/95/47 61/98/61 62/99/62 
f 47/95/47 62/99/62 48/100/48 
f 61/101/61 63/102/63 64/103/64 
f 61/101/61 64/103/64 58/104/58 
f 61/101/61 58/104/58 57/105/57 
f 61/101/61 57/105/57 62/106/62 
f 55/107/55 65/108/65 66/109/66 
f 55/107/55 66/109/66 15/110/15 
f 55/107/55 15/110/15 14/111/14 
f 55/107/55 14/111/14 56/112/56 
f 65/113/65 64/114/64 63/115/63 
f 65/113/65 63/115/63 67/116/67 
f 65/113/65 67/116/67 68/117/68 
f 65/113/65 68/117/68 66/118/66 
f 59/119/59 29/120/29 28/121/28 
f 59/119/59 28/121/28 69/122/69 
f 59/119/59 69/122/69 70/123/70 
f 59/119/59 70/123/70 60/124/60 
f 69/125/69 19/126/19 18/127/18 
f 69/125/69 18/127/18 68/128/68 
f 69/125/69 68/128/68 67/129/67 
f 69/125/69 67/129/67 70/130/70 
f 6/131/6 13/132/13 17/133/17 
f 6/131/6 17/133/17 23/134/23 
f 6/131/6 23/134/23 7/135/7 
f 25/136/25 32/137/32 36/138/36 
f 25/136/25 36/138/36 2/139/2 
f 25/136/25 2/139/2 1/140/1 
f 71/141/71 38/142/38 41/143/41 
f 3/144/3 71/141/71 9/145/9 
f 3/144/3 9/145/9 5/146/5 
f 35/147/35 34/148/34 50/149/50 
f 35/147/35 50/149/50 45/150/45 
f 35/147/35 45/150/45 37/151/37 
f 46/152/46 52/153/52 53/154/53 
f 46/152/46 53/154/53 43/155/43 
f 46/152/46 43/155/43 42/156/42 
f 49/157/49 48/158/48 62/159/62 
f 49/157/49 62/159/62 57/160/57 
f 49/157/49 57/160/57 51/161/51 
f 58/162/58 64/163/64 65/164/65 
f 58/162/58 65/164/65 55/165/55 
f 58/162/58 55/165/55 54/166/54 
f 61/167/61 60/168/60 70/169/70 
f 61/167/61 70/169/70 67/170/67 
f 61/167/61 67/170/67 63/171/63 
f 68/172/68 18/173/18 16/174/16 
f 68/172/68 16/174/16 15/175/15 
f 68/172/68 15/175/15 66/176/66 
f 72/177/72 28/178/28 24/179/24 
f 73/180/73 24/179/24 21/181/21 
f 69/182/69 73/180/73 19/183/19 
f 29/184/29 59/185/59 47/186/47 
f 29/184/29 47/186/47 33/187/33 
f 29/184/29 33/187/33 31/188/31 
f 12/189/12 10/190/10 44/191/44 
f 12/189/12 44/191/44 56/192/56 
f 12/189/12 56/192/56 14/193/14 
s 1
f 74/194/74 75/195/75 76/196/76 
f 77/197/77 74/194/74 76/196/76 
f 78/198/78 77/197/77 76/196/76 
s 8
f 76/196/76 75/195/75 79/199/79 
f 79/199/79 80/200/80 76/196/76 
f 75/201/75 74/202/74 81/203/81 
f 81/203/81 79/204/79 75/201/75 
f 74/202/74 77/205/77 82/206/82 
f 82/206/82 81/203/81 74/202/74 
f 77/205/77 78/207/78 83/208/83 
f 83/208/83 82/206/82 77/205/77 
f 78/207/78 76/196/76 80/200/80 
f 80/200/80 83/208/83 78/207/78 
s 1
f 84/199/84 85/209/85 86/210/86 
f 87/208/87 84/199/84 86/210/86 
f 87/208/87 88/200/88 84/199/84 
s off
f 80/200/80 79/199/79 89/199/89 
f 89/199/89 90/200/90 80/200/80 
f 79/199/79 81/209/81 91/209/91 
f 91/209/91 89/199/89 79/199/79 
f 81/209/81 82/210/82 92/210/92 
f 92/210/92 91/209/91 81/209/81 
f 82/210/82 83/208/83 93/208/93 
f 93/208/93 92/210/92 82/210/82 
f 83/208/83 80/200/80 90/200/90 
f 90/200/90 93/208/93 83/208/83 
f 90/200/90 89/199/89 94/199/94 
f 94/199/94 95/200/95 90/200/90 
f 89/199/89 91/209/91 96/209/96 
f 96/209/96 94/199/94 89/199/89 
f 91/209/91 92/210/92 97/210/97 
f 97/210/97 96/209/96 91/209/91 
f 92/210/92 93/208/93 98/208/98 
f 98/208/98 97/210/97 92/210/92 
f 93/208/93 90/200/90 95/200/95 
f 95/200/95 98/208/98 93/208/93 
f 95/200/95 94/199/94 84/199/84 
f 84/199/84 88/200/88 95/200/95 
f 94/199/94 96/209/96 85/209/85 
f 85/209/85 84/199/84 94/199/94 
f 96/209/96 97/210/97 86/210/86 
f 86/210/86 85/209/85 96/209/96 
f 97/210/97 98/208/98 87/208/87 
f 87/208/87 86/210/86 97/210/97 
f 98/208/98 95/200/95 88/200/88 
f 88/200/88 87/208/87 98/208/98 
f 69/182/69 72/177/72 73/180/73 
f 73/180/73 21/181/21 19/183/19 
f 72/177/72 24/179/24 73/180/73 
f 69/182/69 28/178/28 72/177/72 
f 3/144/3 38/142/38 71/141/71 
f 71/141/71 41/143/41 9/145/9 
f 35/51/35 39/54/39 40/56/40 
f 40/56/40 2/57/2 36/58/36 
f 39/54/39 3/55/3 40/56/40 
f 35/51/35 38/53/38 39/54/39 
f 24/42/24 28/38/28 27/37/27 
f 27/37/27 29/39/29 31/41/31 
f 24/42/24 27/37/27 30/40/30 
f 30/40/30 31/41/31 32/43/32 
f 21/30/21 25/32/25 26/33/26 
f 26/33/26 1/34/1 7/35/7 
f 16/22/16 19/24/19 20/25/20 
f 20/25/20 21/26/21 23/28/23 
f 16/22/16 20/25/20 22/27/22 
f 22/27/22 23/28/23 17/29/17 
f 5/13/5 8/8/8 11/11/11 
f 11/11/11 12/12/12 13/14/13 
f 8/8/8 10/10/10 11/11/11 
f 5/13/5 9/9/9 8/8/8 
f 1/1/1 3/3/3 4/4/4 
f 4/4/4 5/5/5 6/6/6 
# 0 polygons - 188 triangles

